#!OML:ASF I:\Actors\actors\Patient Classification 2\Patient 1\Session 1\actor1.ASF
:FULLY-SPECIFIED
:DEGREES
243
root -0.81647 18.7128 5.40961 1.24148 -1.8314 -3.37499
lowerback 6.76278 0.739331 0.229669
upperback -0.727168 1.03761 0.724925
thorax -4.55722 0.51745 0.511782
lowerneck -12.4549 -1.47898 1.43089
upperneck 22.1684 -2.8946 2.12257
head 9.01596 -1.01191 0.152931
rclavicle -2.10091e-014 -5.96354e-015
rhumerus -49.3004 -2.11166 -84.25
rradius 44.1569
rwrist 8.83408
rhand 0.591231 -38.0974
rfingers 7.12502
rthumb 26.1565 -66.3156
lclavicle -2.10091e-014 -5.96354e-015
lhumerus -42.8286 3.76127 86.0504
lradius 41.3675
lwrist -7.90521
lhand -3.8428 -25.3955
lfingers 7.12502
lthumb 21.9049 3.38451
rfemur 5.7024 2.66645 17.7855
rtibia -5.56597e-015
rfoot -16.7731 -12.3528
rtoes -8.37983
lfemur -6.60917 -6.10662 -10.5171
ltibia 23.1672
lfoot -22.0186 11.9163
ltoes -55.3132
244
root -0.817653 18.713 5.40199 1.25165 -1.76566 -3.36467
lowerback 6.89576 0.7443 0.215577
upperback -0.730983 1.04379 0.721152
thorax -4.63654 0.520712 0.513376
lowerneck -12.4852 -1.47865 1.45489
upperneck 22.1718 -2.88699 2.06743
head 9.0214 -1.0118 0.130771
rclavicle -5.42931e-015 3.18055e-015
rhumerus -49.3302 -2.07533 -84.2325
rradius 44.1245
rwrist 8.8518
rhand 0.540632 -38.0533
rfingers 7.12502
rthumb 26.1081 -66.2786
lclavicle -5.42931e-015 3.18055e-015
lhumerus -42.8563 3.77299 86.046
lradius 41.3893
lwrist -7.87614
lhand -3.64756 -25.052
lfingers 7.12502
lthumb 22.0924 3.70593
rfemur 5.67227 2.59996 17.781
rtibia 0
rfoot -16.7693 -12.379
rtoes -8.44996
lfemur -6.69116 -6.02449 -10.5041
ltibia 23.2006
lfoot -21.9228 11.833
ltoes -55.3746
245
root -0.817707 18.7128 5.39423 1.21173 -1.72004 -3.3117
lowerback 7.06161 0.749471 0.155854
upperback -0.711208 1.04619 0.716172
thorax -4.71065 0.523234 0.539473
lowerneck -12.3999 -1.47352 1.5351
upperneck 22.0339 -2.85834 1.93156
head 8.95419 -1.00928 0.0755537
rclavicle 6.05051e-015 -1.80894e-014
rhumerus -49.3559 -2.0125 -84.2069
rradius 44.1193
rwrist 8.87379
rhand 0.432553 -38.0096
rfingers 7.12502
rthumb 26.0046 -66.2502
lclavicle 6.05051e-015 -1.80894e-014
lhumerus -42.8875 3.83916 86.0319
lradius 41.4308
lwrist -7.87161
lhand -3.65178 -25.1274
lfingers 7.12502
lthumb 22.0883 3.63099
rfemur 5.69535 2.5551 17.7214
rtibia 1.59028e-015
rfoot -16.7532 -12.3768
rtoes -8.51032
lfemur -6.72136 -5.92095 -10.5496
ltibia 23.2325
lfoot -21.797 11.7265
ltoes -55.4121
246
root -0.818236 18.7122 5.3858 1.14795 -1.67187 -3.27175
lowerback 7.25041 0.764904 0.123269
upperback -0.661302 1.06434 0.712015
thorax -4.76599 0.532834 0.549305
lowerneck -12.3945 -1.47171 1.54674
upperneck 21.9085 -2.84512 1.89504
head 8.90911 -1.00803 0.0631504
rclavicle -3.03147e-015 -6.75868e-015
rhumerus -49.3516 -2.00242 -84.1567
rradius 44.1484
rwrist 8.90253
rhand 0.454083 -38.0482
rfingers 7.12502
rthumb 26.0252 -66.2857
lclavicle -3.03147e-015 -6.75868e-015
lhumerus -42.826 3.90851 86.0101
lradius 41.4102
lwrist -7.96206
lhand -3.65664 -25.1823
lfingers 7.12502
lthumb 22.0837 3.57665
rfemur 5.74246 2.509 17.6765
rtibia 1.43125e-014
rfoot -16.713 -12.3742
rtoes -8.58941
lfemur -6.72656 -5.86127 -10.5881
ltibia 23.272
lfoot -21.7056 11.6437
ltoes -55.4074
247
root -0.818127 18.7107 5.3772 1.06119 -1.64932 -3.282
lowerback 7.47276 0.785643 0.153462
upperback -0.588293 1.09524 0.711581
thorax -4.81517 0.547115 0.525892
lowerneck -12.5052 -1.4449 1.52249
upperneck 21.8573 -2.8044 1.90048
head 8.91232 -0.990094 0.0728394
rclavicle -2.17421e-015 -7.95139e-016
rhumerus -49.3431 -1.9381 -84.1328
rradius 44.2201
rwrist 8.86615
rhand 0.624117 -38.1719
rfingers 7.12502
rthumb 26.188 -66.3854
lclavicle -2.17421e-015 -7.95139e-016
lhumerus -42.7305 3.87462 86.0262
lradius 41.4115
lwrist -7.96375
lhand -3.68394 -25.1748
lfingers 7.12502
lthumb 22.0574 3.58729
rfemur 5.80841 2.49018 17.6908
rtibia -1.98785e-014
rfoot -16.6686 -12.4063
rtoes -8.80221
lfemur -6.69569 -5.82934 -10.5819
ltibia 23.3194
lfoot -21.6499 11.6226
ltoes -55.4322
248
root -0.817643 18.7096 5.36715 0.984997 -1.62263 -3.33092
lowerback 7.73407 0.792603 0.225417
upperback -0.539622 1.11243 0.715054
thorax -4.9108 0.553535 0.483813
lowerneck -12.64 -1.41416 1.53036
upperneck 21.8911 -2.7631 1.88138
head 8.9485 -0.970269 0.0684787
rclavicle -3.45388e-015 3.18055e-015
rhumerus -49.3784 -1.77232 -84.1474
rradius 44.3036
rwrist 8.79903
rhand 0.727873 -38.2245
rfingers 7.12502
rthumb 26.2874 -66.4232
lclavicle -3.45388e-015 3.18055e-015
lhumerus -42.7084 3.75608 86.0665
lradius 41.4846
lwrist -7.80777
lhand -3.73201 -25.1017
lfingers 7.12502
lthumb 22.0113 3.66581
rfemur 5.86412 2.46727 17.7482
rtibia -1.43125e-014
rfoot -16.6537 -12.4361
rtoes -8.96092
lfemur -6.68932 -5.768 -10.5251
ltibia 23.3785
lfoot -21.5729 11.5734
ltoes -55.4813
249
root -0.817891 18.7098 5.35424 0.960923 -1.54432 -3.36501
lowerback 7.9922 0.7763 0.262106
upperback -0.536321 1.0962 0.721478
thorax -5.05245 0.544349 0.468312
lowerneck -12.7324 -1.39903 1.58247
upperneck 21.9628 -2.74578 1.82823
head 8.9888 -0.961488 0.0426956
rclavicle -3.00662e-015 3.97569e-016
rhumerus -49.4248 -1.59708 -84.1609
rradius 44.3396
rwrist 8.79514
rhand 0.736639 -38.1096
rfingers 7.12502
rthumb 26.2958 -66.3071
lclavicle -3.00662e-015 3.97569e-016
lhumerus -42.7205 3.66561 86.0781
lradius 41.5334
lwrist -7.63498
lhand -3.76205 -25.0292
lfingers 7.12502
lthumb 21.9824 3.74172
rfemur 5.8634 2.39047 17.7871
rtibia 1.59028e-015
rfoot -16.6656 -12.4383
rtoes -8.90315
lfemur -6.77569 -5.64839 -10.4619
ltibia 23.4546
lfoot -21.4657 11.4136
ltoes -55.5478
250
root -0.817396 18.7098 5.3406 0.94701 -1.46317 -3.37646
lowerback 8.24051 0.75848 0.275846
upperback -0.534295 1.07567 0.72445
thorax -5.19028 0.533594 0.462927
lowerneck -12.7541 -1.38375 1.6206
upperneck 21.9411 -2.71777 1.7647
head 8.98371 -0.952141 0.0178148
rclavicle 2.09594e-014 7.95139e-016
rhumerus -49.4023 -1.45111 -84.1619
rradius 44.3207
rwrist 8.83941
rhand 0.803115 -37.9843
rfingers 7.12502
rthumb 26.3594 -66.1723
lclavicle 2.09594e-014 7.95139e-016
lhumerus -42.6978 3.61493 86.0837
lradius 41.5432
lwrist -7.477
lhand -3.80735 -24.9025
lfingers 7.12502
lthumb 21.939 3.87351
rfemur 5.84424 2.31026 17.7971
rtibia -5.56597e-015
rfoot -16.6698 -12.4326
rtoes -8.69909
lfemur -6.883 -5.54194 -10.427
ltibia 23.5401
lfoot -21.3784 11.2449
ltoes -55.6068
251
root -0.815898 18.709 5.3279 0.913842 -1.41072 -3.41019
lowerback 8.4753 0.758184 0.319105
upperback -0.501753 1.08168 0.736951
thorax -5.28837 0.53527 0.447972
lowerneck -12.8035 -1.38115 1.53394
upperneck 21.8988 -2.70798 1.82313
head 8.9803 -0.948637 0.053012
rclavicle -1.38777e-014 5.76476e-015
rhumerus -49.3463 -1.31137 -84.1482
rradius 44.3285
rwrist 8.83851
rhand 0.859993 -37.9888
rfingers 7.12502
rthumb 26.4138 -66.1686
lclavicle -1.38777e-014 5.76476e-015
lhumerus -42.6367 3.55473 86.1299
lradius 41.5585
lwrist -7.32598
lhand -3.85626 -24.7567
lfingers 7.12502
lthumb 21.892 4.02482
rfemur 5.84306 2.25974 17.8316
rtibia -5.56597e-015
rfoot -16.6355 -12.4571
rtoes -8.62525
lfemur -6.95938 -5.47191 -10.382
ltibia 23.6267
lfoot -21.2924 11.1574
ltoes -55.6777
252
root -0.812898 18.708 5.31662 0.866891 -1.36715 -3.42835
lowerback 8.69108 0.783282 0.35844
upperback -0.444473 1.12073 0.745531
thorax -5.34996 0.553314 0.427185
lowerneck -12.9685 -1.40439 1.41759
upperneck 21.9529 -2.74186 1.91792
head 9.03287 -0.961469 0.0993439
rclavicle -1.23122e-014 2.18663e-015
rhumerus -49.3061 -1.24562 -84.089
rradius 44.3784
rwrist 8.84383
rhand 0.83289 -38.0956
rfingers 7.12502
rthumb 26.3879 -66.2793
lclavicle -1.23122e-014 2.18663e-015
lhumerus -42.5322 3.47533 86.189
lradius 41.548
lwrist -7.25307
lhand -3.86245 -24.6508
lfingers 7.12502
lthumb 21.886 4.13134
rfemur 5.86338 2.2187 17.8418
rtibia 1.19271e-014
rfoot -16.6028 -12.471
rtoes -8.59699
lfemur -7.01499 -5.38951 -10.3646
ltibia 23.719
lfoot -21.1976 11.0968
ltoes -55.7691
